<?xml version="1.0" standalone="no"?>
<!DOCTYPE svg PUBLIC "-//W3C//DTD SVG 20010904//EN"
 "http://www.w3.org/TR/2001/REC-SVG-20010904/DTD/svg10.dtd">
<svg version="1.0" xmlns="http://www.w3.org/2000/svg"
 width="993.000000pt" height="993.000000pt" viewBox="0 0 993.000000 993.000000"
 preserveAspectRatio="xMidYMid meet">

<g transform="translate(0.000000,993.000000) scale(0.100000,-0.100000)"
fill="#000000" stroke="none">
<path d="M4745 9334 c-121 -8 -308 -27 -395 -40 -225 -35 -260 -42 -418 -79
-141 -34 -370 -102 -437 -130 -16 -7 -68 -27 -115 -45 -126 -48 -294 -122
-302 -134 -4 -6 -8 -7 -8 -3 0 26 -550 -298 -654 -385 -6 -4 -54 -41 -107 -81
-139 -104 -241 -191 -378 -324 l-45 -43 825 0 c549 0 839 -4 869 -11 25 -6 50
-12 55 -13 19 -5 110 -50 138 -68 15 -11 27 -17 27 -13 0 14 134 -134 151
-168 12 -22 24 -35 31 -31 7 4 8 3 4 -4 -4 -6 2 -33 13 -59 84 -200 60 -406
-71 -596 -24 -34 -47 -64 -51 -66 -18 -7 -62 -54 -59 -63 1 -5 -2 -7 -8 -3 -6
4 -24 -5 -41 -19 -17 -14 -36 -26 -42 -26 -7 0 -25 -7 -42 -16 -16 -8 -66 -24
-110 -35 -73 -17 -122 -19 -592 -19 -501 0 -563 -3 -563 -32 0 -4 -5 -8 -11
-8 -14 0 -31 -19 -46 -50 -34 -73 -24 -139 27 -190 46 -46 93 -58 234 -61 107
-2 129 -7 225 -53 67 -32 161 -111 186 -156 111 -201 122 -326 46 -530 -11
-30 -20 -51 -21 -47 0 5 -16 -13 -36 -40 -40 -54 -70 -82 -129 -121 -122 -81
-74 -77 -928 -77 -527 0 -760 3 -765 11 -4 6 -27 18 -52 28 -25 10 -61 29 -80
44 -52 38 -158 152 -142 152 4 0 2 4 -4 8 -13 9 -54 105 -54 126 0 9 -4 16 -9
16 -16 0 -13 195 5 257 19 69 42 122 62 146 8 9 12 17 9 17 -9 0 22 37 52 64
13 12 29 26 35 31 33 31 96 76 96 69 0 -4 9 1 20 11 11 10 20 15 20 12 0 -3
25 3 57 14 44 15 83 19 181 19 144 0 189 11 240 57 20 18 33 33 29 33 -4 0 0
11 9 25 22 34 15 122 -12 142 -10 7 -15 13 -10 13 14 0 -44 50 -69 60 -15 6
-143 10 -296 10 l-270 0 -15 -37 c-9 -21 -31 -70 -50 -110 -19 -40 -34 -78
-34 -86 0 -7 -4 -17 -9 -23 -28 -30 -138 -373 -206 -644 -19 -74 -60 -305 -74
-410 -22 -172 -31 -254 -31 -286 l0 -33 347 -1 c334 -1 383 -4 446 -29 16 -6
34 -8 40 -4 7 3 9 3 5 -2 -4 -4 12 -21 35 -38 23 -17 48 -39 55 -49 8 -10 22
-26 31 -36 10 -9 30 -47 45 -84 22 -55 26 -82 26 -160 0 -63 -5 -102 -15 -122
-8 -15 -15 -30 -15 -32 0 -2 313 -4 695 -4 628 0 699 -2 728 -17 96 -49 137
-113 131 -203 -6 -91 -9 -108 -17 -103 -4 2 -15 -8 -23 -24 -15 -26 -80 -65
-129 -77 -11 -3 -51 -6 -90 -7 -73 -2 -135 -23 -135 -46 0 -7 -4 -13 -8 -13
-15 0 -35 -81 -23 -93 6 -6 11 -18 11 -27 0 -23 49 -67 85 -77 17 -4 383 -10
815 -13 894 -6 833 1 925 -94 47 -48 56 -53 148 -75 54 -14 100 -28 103 -33 3
-4 14 -8 25 -8 10 0 19 -4 19 -10 0 -5 5 -10 10 -10 6 0 28 -11 50 -25 l40
-25 0 -593 0 -594 -23 -21 c-13 -12 -29 -22 -35 -22 -7 0 -15 -7 -18 -15 -4
-8 -9 -13 -13 -11 -3 2 -23 -4 -43 -14 -20 -9 -48 -20 -62 -24 -14 -3 -26 -11
-26 -16 0 -18 -4 -25 -25 -46 -39 -42 -53 -62 -47 -71 4 -4 3 -5 -2 -1 -5 4
-37 -13 -72 -38 -35 -25 -67 -45 -71 -45 -4 1 -33 -6 -63 -15 -40 -12 -93 -16
-197 -15 l-143 2 11 -28 c13 -34 54 -74 92 -91 20 -9 126 -12 382 -12 l355 0
2 -428 c2 -236 2 -436 0 -445 -3 -16 -79 -17 -1038 -17 -569 0 -1034 -4 -1034
-8 0 -19 491 -241 622 -281 18 -5 60 -19 93 -31 60 -21 77 -26 253 -74 385
-106 947 -163 1345 -137 283 18 487 47 731 102 1144 258 2138 973 2762 1985
91 148 224 402 224 428 0 9 5 16 10 16 6 0 10 4 10 10 0 5 13 38 28 72 16 35
39 90 51 123 13 33 29 74 37 91 22 50 104 301 104 318 0 9 4 24 10 34 21 38
94 377 85 392 -3 6 -2 10 3 10 9 0 30 124 54 320 17 141 18 804 1 918 -7 45
-18 121 -24 170 -6 48 -18 121 -26 162 -8 41 -18 95 -23 121 -4 25 -14 65 -21
90 -12 46 -25 103 -35 154 -3 17 -36 120 -72 230 l-67 200 -920 5 -920 5 -53
30 c-73 40 -138 114 -157 178 -17 57 -20 178 -5 193 5 5 11 19 13 30 4 27 45
76 103 124 49 40 123 60 226 60 70 0 108 26 108 74 0 44 -31 76 -76 76 -136 0
-200 142 -102 225 l30 26 335 -3 335 -3 28 -32 c38 -42 47 -91 25 -136 -24
-50 -57 -69 -134 -74 -100 -6 -111 -10 -125 -45 -17 -39 -5 -80 27 -97 16 -8
149 -11 490 -9 l469 3 -80 125 -80 125 -44 2 c-148 9 -265 60 -353 155 -100
107 -130 197 -123 359 l5 107 -71 70 c-240 235 -586 492 -886 658 -179 100
-339 176 -353 168 -7 -4 -9 -4 -5 1 8 9 -140 78 -207 97 -22 6 -44 15 -50 19
-13 9 -232 83 -310 105 -311 85 -427 108 -720 144 -159 20 -570 33 -720 24z
m809 -714 c166 -85 197 -317 59 -441 -73 -66 -85 -67 -515 -73 l-386 -5 -53
26 c-68 34 -108 78 -151 165 -4 10 -8 47 -8 83 0 49 6 79 27 122 14 32 25 61
25 66 -1 4 4 7 12 7 8 0 22 10 30 22 9 12 16 18 16 13 0 -6 4 -5 8 1 4 6 21
18 37 27 26 13 85 15 440 14 l410 -2 49 -25z m521 -1541 c81 -57 113 -150 82
-232 -24 -65 -51 -100 -100 -128 -42 -24 -43 -24 -357 -24 l-315 0 -43 25
c-141 80 -139 293 3 368 52 27 94 31 390 29 l291 -2 49 -36z m-891 -1497 c224
-82 328 -333 227 -545 -50 -105 -157 -190 -273 -217 -25 -5 -260 -10 -574 -10
-513 0 -533 1 -595 21 -63 21 -127 63 -163 107 -15 19 -21 21 -35 10 -14 -12
-15 -11 -2 5 13 16 8 33 -20 57 -3 3 -15 37 -27 75 -37 118 -26 219 35 326 33
58 109 139 131 139 6 0 12 5 12 12 0 6 3 8 6 5 4 -4 19 0 33 8 54 31 114 34
646 31 523 -2 542 -3 599 -24z m2996 -2303 c81 -32 154 -99 193 -179 18 -37
22 -62 22 -140 0 -81 -4 -103 -26 -150 -33 -70 -99 -136 -169 -169 l-55 -26
-495 0 -495 0 -57 27 c-69 32 -136 97 -169 163 -21 43 -24 64 -24 150 0 89 3
106 27 150 30 58 97 123 160 157 38 20 61 23 218 29 314 11 830 4 870 -12z
m-914 -1086 c48 -25 101 -83 120 -129 20 -49 17 -151 -6 -201 -23 -53 -71
-100 -124 -124 -38 -17 -72 -19 -406 -19 -407 0 -408 1 -479 71 -65 65 -88
165 -59 260 20 70 90 135 168 160 14 4 187 7 385 6 349 -2 361 -3 401 -24z"/>
<path d="M624 4413 c3 -16 10 -57 15 -93 50 -348 175 -788 302 -1067 10 -23
19 -45 19 -48 0 -13 171 -349 215 -423 26 -42 52 -86 58 -97 42 -70 159 -242
206 -303 31 -41 63 -84 71 -96 22 -33 75 -98 154 -187 l69 -79 798 0 c511 0
807 4 824 10 40 15 105 86 105 114 0 3 -60 6 -133 6 -105 0 -143 4 -185 19
-28 11 -52 17 -52 14 0 -3 -15 6 -34 21 -19 14 -38 26 -42 26 -11 0 -114 109
-114 120 0 6 -49 10 -117 10 -64 0 -144 5 -177 11 -107 19 -274 106 -347 179
-48 49 -112 127 -127 156 -7 13 -17 24 -23 24 -6 0 -8 4 -4 9 3 6 -3 25 -13
43 -50 91 -78 263 -63 386 6 42 13 92 17 110 l7 32 -61 0 c-34 0 -71 4 -84 9
-13 5 -40 14 -62 21 -54 17 -130 82 -162 140 -54 94 -57 208 -9 306 35 73 73
110 150 151 54 28 71 32 150 34 130 3 179 23 213 90 16 31 12 95 -5 92 -7 -2
-10 4 -6 12 7 21 -41 62 -83 70 -19 3 -183 5 -366 5 -183 -1 -342 1 -353 5
-59 20 -75 29 -104 59 -18 18 -40 55 -49 82 l-18 49 -293 3 -293 2 6 -27z"/>
</g>
</svg>
