<?xml version="1.0" encoding="utf-8"?>
<svg data-name="Layer 1" viewBox="0 0 1200 120" preserveAspectRatio="none" xmlns="http://www.w3.org/2000/svg">
  <path d="M 0 0 L 0 46.29 C 47.79 68.49 103.59 78.46 158 74.29 C 228.36 68.92 294.33 40.98 364.8 36.79 C 438.64 32.43 512.34 53.67 583 72.05 C 652.27 90.05 721.3 96.93 792.4 85.13 C 828.55 79.13 862.25 67.29 896.85 55.79 C 989.49 25 1113 -14.29 1200 52.47 L 1200 0 L 0 0 Z" opacity=".25" class="shape-fill" fill="#FFFFFF" fill-opacity="1" transform="matrix(0, 1, -1, 0, 645.492477, -554.507523)"/>
  <path d="M -1.005 -10.995 L -1.005 4.815 C 11.995 25.925 26.635 45.865 46.685 61.055 C 98.405 100.275 163.995 100.005 223.575 80.585 C 254.725 70.435 283.665 54.515 313.245 40.785 C 354.165 21.785 397.975 -5.215 444.075 -8.885 C 480.335 -11.735 514.975 0.535 542.675 22.675 C 574.445 48.065 604.995 84.675 646.305 95.675 C 686.745 106.465 727.655 88.985 765.435 71.395 C 803.215 53.805 840.595 32.395 882.355 28.345 C 942.085 22.495 995.635 51.225 1051.255 67.185 C 1081.455 75.845 1110.255 73.355 1138.345 59.685 C 1160.775 48.795 1186.345 32.755 1198.995 10.445 L 1198.995 -10.995 L -1.005 -10.995 Z" opacity=".5" class="shape-fill" fill="#FFFFFF" fill-opacity="1" transform="matrix(0, 1, -1, 0, 642.994606, -554.995394)"/>
  <path d="M 0 0 L 0 5.63 C 149.93 59 314.09 71.32 475.83 42.57 C 518.83 34.93 560.06 22.45 603.44 16.11 C 662.44 7.48 715.92 28.35 769 51.51 C 827.93 77.22 886 95.24 951.2 90 C 1037.73 83 1123.66 44.29 1200 5.19 L 1200 0 L 0 0 Z" class="shape-fill" fill="#FFFFFF" fill-opacity="1" transform="matrix(0, 1, -1, 0, 645.454479, -554.545521)"/>
</svg>